<?xml version="1.0" encoding="UTF-8"?>
<svg id="svg3025" xmlns="http://www.w3.org/2000/svg" viewBox="0 0 1046.14 896.69">
  <defs>
    <style>
      .cls-1 {
        fill: #e21be2;
      }
    </style>
  </defs>
  <g id="g3027">
    <path id="path3029" class="cls-1" d="m821.97,541.75v186.81c0,46.31-16.44,85.91-49.33,118.8-32.89,32.89-72.49,49.33-118.8,49.33H168.13c-46.31,0-85.91-16.44-118.8-49.33C16.44,814.48,0,774.88,0,728.56V242.85c0-46.31,16.44-85.91,49.33-118.8,32.89-32.89,72.49-49.33,118.8-49.33h410.98c5.45,0,9.92,1.75,13.43,5.25s5.25,7.98,5.25,13.43v37.36c0,5.45-1.75,9.92-5.25,13.43s-7.98,5.25-13.43,5.25H168.13c-25.69,0-47.68,9.15-65.97,27.44s-27.44,40.28-27.44,65.97v485.71c0,25.69,9.15,47.68,27.44,65.97s40.28,27.44,65.97,27.44h485.71c25.69,0,47.68-9.15,65.97-27.44s27.44-40.28,27.44-65.97v-186.81c0-5.45,1.75-9.92,5.25-13.43s7.98-5.25,13.43-5.25h37.36c5.45,0,9.92,1.75,13.43,5.25s5.25,7.98,5.25,13.43Zm224.17-504.39v298.9c0,10.12-3.7,18.88-11.09,26.27s-16.15,11.09-26.27,11.09-18.88-3.7-26.27-11.09l-102.75-102.75-380.63,380.63c-3.89,3.89-8.37,5.84-13.43,5.84s-9.54-1.95-13.43-5.84l-66.55-66.55c-3.89-3.89-5.84-8.37-5.84-13.43s1.95-9.54,5.84-13.43l380.63-380.63-102.75-102.75c-7.39-7.39-11.09-16.15-11.09-26.27s3.7-18.88,11.09-26.27,16.15-11.09,26.27-11.09h298.9c10.12,0,18.88,3.7,26.27,11.09s11.09,16.15,11.09,26.27Z"/>
  </g>
</svg>